<svg xmlns="http://www.w3.org/2000/svg" viewBox="0 0 24 24" fill="none" stroke="#D4AF37" stroke-width="2" stroke-linecap="round" stroke-linejoin="round">
  <path d="M2 13a6 6 0 0 1 6-6 4 4 0 0 0 4 4 4 4 0 0 0 4-4 6 6 0 0 1 6 6v7h-26z" fill="black"/>
  <circle cx="8" cy="13" r="2" fill="#D4AF37" fill-opacity="0.3"/>
  <circle cx="16" cy="13" r="2" fill="#D4AF37" fill-opacity="0.3"/>
  <path d="M12 11c0-2-2-3-4-3S4 9 4 11"/>
  <path d="M20 11c0-2-2-3-4-3s-4 1-4 3"/>
  <line x1="12" y1="11" x2="12" y2="12"/>
</svg>
